HIERARCHY
ROOT Hips
{
	OFFSET 0.000000 88.474243 0.000000
	CHANNELS 6 Xposition Yposition Zposition Zrotation Yrotation Xrotation 
	JOINT Hips_Spine
	{
		OFFSET 0.000000 0.000000 0.000000
		CHANNELS 3 Zrotation Yrotation Xrotation
		JOINT Spine
		{
			OFFSET 0.005100 8.711998 -0.691000
			CHANNELS 3 Zrotation Yrotation Xrotation
			JOINT Spine1
			{
				OFFSET -0.009200 8.660301 -1.275000
				CHANNELS 3 Zrotation Yrotation Xrotation
				JOINT Spine2
				{
					OFFSET 0.006300 9.852501 -1.857000
					CHANNELS 3 Zrotation Yrotation Xrotation
					JOINT Spine2_Neck
					{
						OFFSET 0.000000 0.000000 0.000000
						CHANNELS 3 Zrotation Yrotation Xrotation
						JOINT Neck
						{
							OFFSET 0.016300 11.420799 -0.263300
							CHANNELS 3 Zrotation Yrotation Xrotation
							End Site #name: Head
							{
								OFFSET -0.019200 9.262405 2.362500
							}
						}
					}
					JOINT Spine2_LeftShoulder
					{
						OFFSET 0.000000 0.000000 0.000000
						CHANNELS 3 Zrotation Yrotation Xrotation
						JOINT LeftShoulder
						{
							OFFSET 5.616900 6.732201 -0.345700
							CHANNELS 3 Zrotation Yrotation Xrotation
							JOINT LeftArm
							{
								OFFSET 10.664888 -0.183372 -2.440700
								CHANNELS 3 Zrotation Yrotation Xrotation
								JOINT LeftForeArm
								{
									OFFSET 27.459126 0.000000 0.000000
									CHANNELS 3 Zrotation Yrotation Xrotation
									End Site #name: LeftHand
									{
										OFFSET 21.306858 0.000000 0.000000
									}
								}
							}
						}
					}
					JOINT Spine2_RightShoulder
					{
						OFFSET 0.000000 0.000000 0.000000
						CHANNELS 3 Zrotation Yrotation Xrotation
						JOINT RightShoulder
						{
							OFFSET -5.580300 6.737503 -0.344400
							CHANNELS 3 Zrotation Yrotation Xrotation
							JOINT RightArm
							{
								OFFSET -10.679335 -0.188484 -2.383900
								CHANNELS 3 Zrotation Yrotation Xrotation
								JOINT RightForeArm
								{
									OFFSET -27.503529 0.000000 0.000000
									CHANNELS 3 Zrotation Yrotation Xrotation
									End Site #name: RightHand
									{
										OFFSET -21.306808 0.000000 0.000000
									}
								}
							}
						}
					}
				}
			}
		}
	}
	JOINT Hips_LeftUpLeg
	{
		OFFSET 0.000000 0.000000 0.000000
		CHANNELS 3 Zrotation Yrotation Xrotation
		JOINT LeftUpLeg
		{
			OFFSET 6.857700 -6.739601 0.312100
			CHANNELS 3 Zrotation Yrotation Xrotation
			JOINT LeftLeg
			{
				OFFSET -0.367590 -34.731552 -4.572400
				CHANNELS 3 Zrotation Yrotation Xrotation
				End Site #name: LeftFoot
				{
					OFFSET 0.367590 -34.656704 -6.067400
				}
			}
		}
	}
	JOINT Hips_RightUpLeg
	{
		OFFSET 0.000000 0.000000 0.000000
		CHANNELS 3 Zrotation Yrotation Xrotation
		JOINT RightUpLeg
		{
			OFFSET -6.876100 -6.733299 0.301000
			CHANNELS 3 Zrotation Yrotation Xrotation
			JOINT RightLeg
			{
				OFFSET 0.347353 -34.795158 -4.515900
				CHANNELS 3 Zrotation Yrotation Xrotation
				End Site #name: RightFoot
				{
					OFFSET -0.347353 -34.589367 -6.070300
				}
			}
		}
	}
}
MOTION
Frames: 17
Frame Time: 0.041667
-0.456968 0.019353 -0.760647 0.705044 26.867881 -5.982211 -0.000000 0.000000 0.000000 1.583308 -2.203169 -4.511522 2.356937 -1.311312 -1.528190 0.000000 0.000000 0.000000 2.657834 -1.067905 -1.569955 2.238127 -3.815308 -0.527647 2.032779 -1.450805 -1.886436 -22.825308 1.321932 6.588177 -48.299886 12.015184 15.497588 -0.666217 -20.966779 4.245608 1.821346 -1.128931 -0.397596 14.411893 8.454224 2.547192 56.785969 3.837010 -4.850234 0.524794 45.176084 -0.495141 0.000000 -0.000000 -0.000000 -7.214608 15.103054 -5.386423 1.974398 8.193681 21.119444 0.000000 0.000000 0.000000 -4.734732 -3.367584 -18.994486 2.324579 -1.579726 15.776346 
-0.714302 -0.033335 -0.579169 0.304120 27.963347 -6.213664 -0.000000 0.000000 0.000000 2.192751 -1.993645 -4.447190 2.515902 -1.344619 -1.504013 0.000000 0.000000 0.000000 2.780098 -1.046632 -1.531229 2.269427 -3.849156 -0.257745 2.199566 -1.458470 -1.829049 -22.289710 1.423394 6.619178 -49.069329 12.730154 15.253601 -0.738906 -22.130164 4.124519 1.966963 -1.117756 -0.383407 14.442980 8.653731 2.649945 56.766696 3.547776 -4.792316 0.525535 45.440502 -0.501939 0.000000 -0.000000 -0.000000 -6.448236 15.273353 -5.197307 1.688416 8.116583 21.304342 0.000000 -0.000000 0.000000 -3.895173 -3.537676 -19.493356 2.211722 -2.357523 16.575675 
-0.937019 -0.092728 -0.375195 -0.106665 28.714263 -6.528202 -0.000000 0.000000 0.000000 2.694734 -1.833231 -4.277022 2.656217 -1.371239 -1.487479 0.000000 0.000000 0.000000 2.887886 -1.026442 -1.500609 2.345742 -3.889795 0.060976 2.345391 -1.457154 -1.772852 -21.785499 1.480635 6.693169 -49.827861 13.252175 14.939241 -0.789889 -23.019677 4.030579 2.095466 -1.102431 -0.370411 14.496947 8.838964 2.737189 56.740536 3.343596 -4.708415 0.527170 45.745313 -0.506216 0.000000 -0.000000 -0.000000 -5.675247 15.487600 -4.730694 1.459978 7.879899 21.334079 0.000000 -0.000000 0.000000 -3.116635 -3.625574 -19.916621 2.102750 -3.082222 17.355380 
-1.114371 -0.159788 -0.158770 -0.426262 28.972104 -6.801882 -0.000000 0.000000 0.000000 3.043414 -1.729604 -4.036196 2.783068 -1.387882 -1.468713 0.000000 0.000000 0.000000 2.985027 -1.006846 -1.471385 2.458133 -3.855030 0.292932 2.477661 -1.451038 -1.715999 -21.367375 1.500175 6.782418 -50.511607 13.697414 14.581665 -0.833051 -23.769485 3.972136 2.208459 -1.086562 -0.357696 14.565284 9.010016 2.812989 56.706779 3.173448 -4.555190 0.531074 46.070761 -0.508640 0.000000 -0.000000 -0.000000 -4.965277 15.726641 -4.061810 1.093845 7.355114 21.123960 0.000000 -0.000000 0.000000 -2.475603 -3.639072 -20.266692 2.009811 -3.720311 18.125101 
-1.238849 -0.229461 0.062599 -0.619793 28.561969 -7.009742 -0.000000 -0.000000 0.000000 3.210741 -1.696612 -3.737931 2.902818 -1.404427 -1.425258 0.000000 0.000000 0.000000 3.074833 -0.989774 -1.435090 2.550432 -3.827406 0.524234 2.598870 -1.441473 -1.651910 -21.002147 1.499463 6.841880 -51.145056 14.060471 14.280851 -0.875119 -24.414139 3.931567 2.309162 -1.074667 -0.345166 14.633089 9.136415 2.870459 56.643291 3.059868 -4.350146 0.535317 46.368764 -0.509266 0.000000 -0.000000 -0.000000 -4.353870 15.910197 -3.359812 0.541059 6.503508 20.919831 0.000000 -0.000000 0.000000 -1.989390 -3.544744 -20.526789 1.971941 -4.234703 18.872676 
-1.309990 -0.297068 0.280603 -0.683531 27.513581 -7.160485 -0.000000 -0.000000 0.000000 3.332466 -1.742172 -3.370387 3.016409 -1.422886 -1.371815 0.000000 0.000000 0.000000 3.156925 -0.975723 -1.397402 2.622584 -3.793055 0.716780 2.715335 -1.434358 -1.587679 -20.680542 1.478103 6.886329 -51.720523 14.338964 14.053170 -0.912485 -25.000560 3.905582 2.402893 -1.067661 -0.330499 14.686323 9.189115 2.898645 56.539576 3.030643 -4.109234 0.541759 46.658359 -0.511040 -0.000000 -0.000000 -0.000000 -3.804488 15.978678 -2.804010 -0.123968 5.415102 21.137435 0.000000 -0.000000 0.000000 -1.637565 -3.329356 -20.695860 2.032264 -4.554150 19.541549 
-1.326406 -0.367037 0.481873 -0.648160 25.969241 -7.256509 -0.000000 -0.000000 0.000000 3.452303 -1.861433 -3.021654 3.126505 -1.440454 -1.321038 0.000000 0.000000 0.000000 3.233911 -0.963809 -1.353247 2.687717 -3.751745 0.855417 2.827609 -1.432212 -1.527189 -20.412202 1.446227 6.908300 -52.226355 14.525702 13.852562 -0.944715 -25.509492 3.877109 2.493073 -1.066774 -0.318433 14.732519 9.193885 2.910177 56.391918 3.115583 -3.846401 0.546905 46.982895 -0.512692 -0.000000 -0.000000 -0.000000 -3.302689 15.825962 -2.467690 -0.813882 4.220974 21.896403 0.000000 -0.000000 0.000000 -1.361889 -2.997197 -20.870844 2.173685 -4.700829 20.264951 
-1.283361 -0.435978 0.657947 -0.524803 23.790493 -7.297391 -0.000000 -0.000000 0.000000 3.586960 -2.008738 -2.756050 3.233418 -1.457073 -1.267152 0.000000 0.000000 0.000000 3.307917 -0.954150 -1.310324 2.723419 -3.705281 0.976495 2.930830 -1.432483 -1.463397 -20.189104 1.416352 6.909167 -52.659600 14.664350 13.720647 -0.974517 -25.948749 3.835019 2.579146 -1.070826 -0.310888 14.796189 9.175551 2.921614 56.200659 3.258396 -3.591898 0.551534 47.355459 -0.517285 -0.000000 -0.000000 -0.000000 -2.792187 15.345034 -2.226259 -1.502235 3.133344 22.866743 0.000000 -0.000000 0.000000 -1.115978 -2.626800 -21.041446 2.395474 -4.631678 21.043072 
-1.174029 -0.501160 0.804358 -0.335710 21.376801 -7.268548 -0.000000 -0.000000 0.000000 3.719126 -2.204302 -2.546154 3.336346 -1.473167 -1.221876 0.000000 0.000000 0.000000 3.378057 -0.946131 -1.269896 2.735355 -3.642244 1.096149 3.028855 -1.436558 -1.416484 -20.020069 1.389937 6.891501 -53.006184 14.783907 13.591605 -1.011388 -26.378402 3.782566 2.664523 -1.079933 -0.312252 14.853914 9.144356 2.929091 56.001690 3.403262 -3.348102 0.557399 47.790647 -0.518579 -0.000000 -0.000000 -0.000000 -2.403697 14.839163 -2.067029 -2.135493 2.379114 23.834364 0.000000 -0.000000 0.000000 -0.896149 -2.217812 -21.269401 2.722389 -4.313782 21.945187 
-0.998083 -0.563239 0.923886 -0.129063 18.939667 -7.219666 -0.000000 -0.000000 0.000000 3.831833 -2.315587 -2.395806 3.435538 -1.490923 -1.190582 0.000000 0.000000 0.000000 3.443439 -0.939879 -1.231969 2.727358 -3.529563 1.211269 3.123060 -1.445010 -1.385500 -19.916047 1.374949 6.862178 -53.274417 14.921064 13.449847 -1.040966 -26.698726 3.717347 2.747552 -1.091543 -0.320753 14.890937 9.100975 2.931275 55.816562 3.523751 -3.169212 0.563568 48.184689 -0.518257 -0.000000 -0.000000 -0.000000 -2.202231 14.240619 -2.078218 -2.713802 1.812170 24.796075 0.000000 -0.000000 0.000000 -0.754265 -1.778047 -21.546196 3.110293 -3.798275 22.917937 
-0.756482 -0.624878 1.018107 0.084238 16.759164 -7.178193 -0.000000 -0.000000 0.000000 3.926252 -2.393429 -2.306313 3.529632 -1.511734 -1.173119 0.000000 0.000000 0.000000 3.504282 -0.936164 -1.194888 2.707764 -3.391941 1.313462 3.211603 -1.457877 -1.372337 -19.900085 1.366860 6.821833 -53.429729 15.051247 13.291324 -1.091298 -26.896486 3.667799 2.825881 -1.107246 -0.335653 14.911110 9.060342 2.932415 55.663697 3.587384 -3.064010 0.570160 48.453386 -0.516850 0.000000 -0.000000 -0.000000 -2.182008 13.605262 -2.171293 -3.249274 1.208907 25.590673 0.000000 -0.000000 0.000000 -0.738499 -1.362619 -21.768180 3.590043 -3.114148 23.836062 
-0.456544 -0.680032 1.093865 0.280271 15.084763 -7.156469 -0.000000 -0.000000 0.000000 3.994000 -2.477692 -2.278691 3.617556 -1.533628 -1.167385 0.000000 0.000000 0.000000 3.558552 -0.935311 -1.163604 2.675590 -3.265619 1.406196 3.293195 -1.472982 -1.378414 -19.979612 1.377202 6.770537 -53.453205 15.098659 13.110994 -1.143823 -27.019968 3.608349 2.901835 -1.128436 -0.356885 14.894596 9.031300 2.935296 55.552996 3.564020 -3.038586 0.577335 48.567009 -0.516676 0.000000 -0.000000 -0.000000 -2.311666 13.010397 -2.292321 -3.682173 0.635866 26.145125 0.000000 -0.000000 0.000000 -0.860344 -0.847796 -21.898365 4.147880 -2.195178 24.670520 
-0.106297 -0.723444 1.156464 0.433724 13.999011 -7.164424 -0.000000 -0.000000 0.000000 4.012486 -2.563603 -2.321348 3.702696 -1.555899 -1.170963 0.000000 0.000000 0.000000 3.608514 -0.933940 -1.141541 2.627573 -3.129600 1.486857 3.369460 -1.488919 -1.399035 -20.139607 1.407598 6.698011 -53.320271 15.132370 12.917256 -1.181032 -27.071075 3.524330 2.973561 -1.148217 -0.385429 14.833248 9.007045 2.937724 55.506631 3.447436 -3.108980 0.585422 48.497939 -0.517106 0.000000 -0.000000 -0.000000 -2.629610 12.480403 -2.433284 -4.012391 0.042038 26.386020 0.000000 -0.000000 0.000000 -1.076556 -0.408446 -22.037099 4.714789 -1.127289 25.442143 
0.289817 -0.758599 1.211204 0.568436 13.365247 -7.158255 -0.000000 -0.000000 0.000000 3.958852 -2.646695 -2.434810 3.786343 -1.575692 -1.185360 0.000000 0.000000 0.000000 3.655078 -0.931869 -1.128562 2.565402 -2.990406 1.570086 3.440748 -1.502757 -1.430670 -20.355056 1.442044 6.616437 -53.085905 15.198115 12.706975 -1.192815 -27.027904 3.412343 3.043251 -1.164203 -0.420013 14.715093 8.991601 2.936328 55.520577 3.258880 -3.233107 0.593024 48.218313 -0.514031 0.000000 -0.000000 -0.000000 -3.170310 12.027318 -2.611988 -4.164000 -0.126854 26.504808 0.000000 -0.000000 0.000000 -1.386342 -0.156268 -22.211666 5.264999 -0.155734 26.182281 
0.728017 -0.791008 1.263851 0.688501 12.996117 -7.123520 -0.000000 -0.000000 0.000000 3.870793 -2.731739 -2.599268 3.858416 -1.589022 -1.208466 0.000000 0.000000 0.000000 3.700433 -0.929072 -1.122746 2.490568 -2.856993 1.637290 3.509323 -1.514865 -1.470424 -20.592480 1.474907 6.544811 -52.736184 15.309134 12.508390 -1.189041 -27.015566 3.281261 3.112073 -1.177560 -0.457484 14.563691 8.977513 2.933817 55.596899 2.941886 -3.403909 0.600469 47.743426 -0.509340 0.000000 -0.000000 -0.000000 -3.840865 11.696668 -2.885358 -4.252616 -0.368945 26.870686 0.000000 -0.000000 0.000000 -1.746380 -0.103956 -22.380815 5.821533 0.829079 26.870282 
1.203182 -0.823295 1.318290 0.785667 12.737150 -7.080574 -0.000000 -0.000000 0.000000 3.769183 -2.806135 -2.754730 3.925055 -1.598018 -1.241728 0.000000 0.000000 0.000000 3.742126 -0.922609 -1.121912 2.410555 -2.740678 1.690589 3.571073 -1.521303 -1.514390 -20.815614 1.485811 6.476477 -52.320482 15.502254 12.348686 -1.164316 -27.040980 3.110532 3.174857 -1.182480 -0.493041 14.383399 8.983124 2.933020 55.741617 2.522471 -3.578693 0.607282 47.180174 -0.504192 0.000000 -0.000000 -0.000000 -4.502858 11.370068 -3.204181 -4.125621 -0.623084 27.297206 0.000000 -0.000000 0.000000 -2.146744 -0.248032 -22.519136 6.337541 1.736060 27.558104 
1.707420 -0.857755 1.375451 0.868163 12.530004 -7.054375 -0.000000 -0.000000 0.000000 3.626544 -2.870748 -2.855532 3.984183 -1.601465 -1.282577 0.000000 0.000000 0.000000 3.780106 -0.913276 -1.126954 2.329120 -2.656486 1.713379 3.625106 -1.521613 -1.543692 -21.014541 1.490004 6.418207 -51.885539 15.840708 12.200010 -1.135650 -27.169994 2.950690 3.233141 -1.180443 -0.526903 14.204911 9.015832 2.938414 55.927923 2.051212 -3.794606 0.612138 46.620895 -0.497687 0.000000 -0.000000 -0.000000 -5.134428 11.208282 -3.496985 -3.963694 -1.150268 27.824760 0.000000 -0.000000 0.000000 -2.585642 -0.590808 -22.585704 6.670036 2.400388 28.179127 
